<svg width="83" height="54" viewBox="0 0 83 54" fill="none" xmlns="http://www.w3.org/2000/svg">
<g clip-path="url(#clip0_90_4087)">
<path fill-rule="evenodd" clip-rule="evenodd" d="M8.02965 48.24L8.35965 48.41L8.19965 53.05L8.02965 48.24ZM8.02965 45.24L8.45966 45.47L8.39966 47.05L8.06966 46.76L8.02965 45.24ZM7.92966 40.44L8.17966 40.17L8.54965 40.49V42.27L8.31966 42.43L8.01965 42.16L7.92966 40.44ZM7.79965 35.16L8.13965 34.96L8.67966 35.23L8.61964 37.23L8.27965 37.52L7.85965 37.14L7.79965 35.16ZM7.62965 27.71L7.94965 27.54L8.85965 27.78L8.75966 31.08L8.27965 31.28L7.72964 31.04L7.62965 27.71ZM7.93965 18.24L9.03966 18.48L8.93965 23.66L8.49965 23.83L7.49965 23.45L7.38965 18.45L7.93965 18.24ZM7.40965 0.719983C7.40965 -0.220017 9.00966 -0.280017 9.00966 0.719983V14.88L8.43965 15.08L7.43965 14.88L7.40965 0.719983Z" fill="#010101"/>
<path fill-rule="evenodd" clip-rule="evenodd" d="M4.21977 26.14L7.29977 27.08C6.75216 27.1493 6.24615 27.4084 5.86978 27.8122C5.49341 28.216 5.27049 28.7389 5.23978 29.29C5.23978 32.49 11.9398 31.54 11.9398 35.88C11.9398 37.18 10.6498 38.05 9.62978 38.77L8.36977 37.77C8.93976 37.21 9.80977 36.71 9.80977 35.77C9.80977 33.77 2.54977 33.48 2.54977 29.33C2.54268 28.7017 2.69151 28.0814 2.98296 27.5247C3.2744 26.9679 3.69936 26.4922 4.21977 26.14ZM12.0798 6.49001C11.3898 5.40001 10.1298 5.19001 8.59978 5.24001C3.59978 5.39001 0.599774 8.93001 0.159774 11.06C-0.550226 14.24 1.15977 16.45 5.24977 17.21C9.33977 17.97 13.0798 19.04 13.0798 20.49C13.0798 21.94 10.9098 23.49 8.75978 24.19C9.87844 24.5416 10.9472 25.0357 11.9398 25.66C12.9575 25.1632 13.8395 24.4268 14.5101 23.5142C15.1807 22.6015 15.6198 21.5397 15.7898 20.42C15.7898 17.84 12.2298 16.35 7.53978 15.31C2.84978 14.27 2.33978 13.31 2.66978 11.07C2.89978 9.49001 5.15977 7.07001 6.12978 7.35001C8.21978 7.97002 10.8298 7.89001 12.0798 6.49001ZM6.93977 44.24C6.54413 44.6627 6.32578 45.2211 6.32977 45.8C6.32977 46.87 8.23977 47.68 8.94977 48.48C8.37977 47.74 7.08977 46.59 7.08977 45.48C7.08977 45.14 7.39978 44.92 7.70978 44.71L6.93977 44.24ZM6.51977 39.24L7.77977 40.04C7.55145 40.2255 7.36227 40.4545 7.22322 40.7137C7.08417 40.9729 6.99801 41.2572 6.96977 41.55C6.96977 42.7 9.96978 44.09 9.73978 45.77C8.42978 44.02 6.05977 44.14 5.43977 41.33C5.43241 40.915 5.53149 40.505 5.72755 40.1391C5.92362 39.7733 6.21012 39.4637 6.55977 39.24H6.51977ZM5.25978 33.46L7.63977 34.46C6.95977 34.73 6.36977 35.1 6.35977 35.75C6.35977 37.47 10.6898 39.06 10.6898 41.28C10.6005 41.7836 10.4089 42.2634 10.1268 42.69C9.84472 43.1165 9.47816 43.4807 9.04977 43.76L8.22977 43.02C8.49184 42.8736 8.71212 42.6626 8.86964 42.4071C9.02717 42.1515 9.11672 41.8599 9.12978 41.56C9.12978 39.48 4.22977 38.44 4.22977 35.72C4.30314 34.8712 4.68359 34.0783 5.29977 33.49L5.25978 33.46ZM3.10977 17.13L7.10977 18.01C5.26977 18.29 3.10977 19.09 3.10977 20.52C3.10977 24.41 13.6198 24.09 13.6198 29.22C13.6198 30.97 12.6198 31.92 10.8298 33C10.0867 32.4669 9.26749 32.0489 8.39978 31.76C9.95978 31.17 10.8698 30.76 10.8698 29.18C10.8698 27.07 7.80977 26.92 4.86977 25.88C1.92977 24.84 0.339774 22.06 0.339774 20.59C0.400268 19.7992 0.702247 19.0462 1.20484 18.4327C1.70743 17.8192 2.38637 17.3749 3.14977 17.16L3.10977 17.13Z" fill="#847040"/>
<path fill-rule="evenodd" clip-rule="evenodd" d="M9.46964 15.31C14.1596 14.31 14.6596 13.31 14.3396 11.07C14.0996 9.49001 11.8396 7.07001 10.8696 7.35001C8.76963 7.97002 6.15963 7.89001 4.86963 6.49001C5.55963 5.40001 6.86964 5.19001 8.34964 5.24001C13.3496 5.39001 16.3496 8.93001 16.7996 11.06C17.3996 13.77 16.2196 15.78 13.3396 16.79C13.3796 16.79 9.46964 15.35 9.46964 15.31Z" fill="#847040"/>
<path fill-rule="evenodd" clip-rule="evenodd" d="M39.94 29.98H38.55C38.2263 30.0015 37.9035 29.9253 37.6236 29.7613C37.3437 29.5972 37.1195 29.3529 36.98 29.06L33.74 23.89C34.5236 23.806 35.2821 23.5645 35.97 23.18C36.3012 23.0032 36.5778 22.7393 36.7699 22.4168C36.962 22.0943 37.0623 21.7254 37.06 21.35C37.0685 21.0688 37.0082 20.7898 36.8845 20.5371C36.7608 20.2844 36.5773 20.0657 36.35 19.9C35.8304 19.5415 35.2111 19.3561 34.58 19.37C34.3369 19.3555 34.0931 19.3555 33.85 19.37L33.28 19.46V27.86C33.2664 28.2597 33.3034 28.6595 33.39 29.05C33.52 29.46 33.46 29.81 33.83 29.93H30.51C30.6807 29.8537 30.8305 29.7376 30.9471 29.5915C31.0637 29.4453 31.1435 29.2734 31.18 29.09C31.2826 28.7053 31.3298 28.308 31.32 27.91V20.24C31.3313 19.865 31.2841 19.4905 31.18 19.13C31.1361 18.9479 31.0498 18.7787 30.9282 18.6362C30.8065 18.4937 30.653 18.3819 30.48 18.31H35.05C36.0877 18.2503 37.1166 18.5312 37.98 19.11C38.302 19.3481 38.5613 19.661 38.7355 20.0216C38.9097 20.3822 38.9936 20.7797 38.98 21.18C38.9826 21.5566 38.9056 21.9295 38.754 22.2741C38.6023 22.6188 38.3794 22.9275 38.1 23.18C37.4958 23.7321 36.7464 24.0999 35.94 24.24C35.94 24.24 39.33 29.64 39.94 29.98Z" fill="#010101"/>
<path fill-rule="evenodd" clip-rule="evenodd" d="M49.2395 24.24L47.3495 19.76L45.4495 24.24H49.2395ZM50.6895 29.96C51.1495 29.74 51.2695 29.49 51.2695 29.26C51.2511 29.0479 51.1935 28.8411 51.0995 28.65C51.0057 28.4545 50.9223 28.2542 50.8495 28.05L49.7896 25.55H44.9395L43.9395 28.05C43.8395 28.3 43.7595 28.5 43.7095 28.65C43.6633 28.8058 43.6397 28.9675 43.6395 29.13C43.6363 29.2096 43.6497 29.289 43.679 29.363C43.7083 29.4371 43.7527 29.5042 43.8095 29.56C43.9412 29.7402 44.1216 29.879 44.3295 29.96H40.7896C41.2862 29.6958 41.6985 29.2973 41.9795 28.81C42.236 28.3412 42.4632 27.857 42.6595 27.36L45.8595 19.95L46.0895 19.37C46.1375 19.2384 46.1645 19.1 46.1695 18.96C46.1726 18.8157 46.1344 18.6734 46.0595 18.55C45.9291 18.4042 45.7587 18.2999 45.5695 18.25H48.5695L52.5695 27.33C52.7776 27.8316 53.0113 28.3223 53.2695 28.8C53.552 29.2887 53.9638 29.6901 54.4595 29.96H50.6895Z" fill="#010101"/>
<path fill-rule="evenodd" clip-rule="evenodd" d="M68.0596 29.98H65.8497C65.5341 29.9822 65.2259 29.8842 64.9697 29.7C64.8177 29.6021 64.6855 29.4766 64.5797 29.33L61.3797 24.88L58.6996 28.14C58.5662 28.2966 58.4458 28.4638 58.3396 28.64C58.2276 28.8028 58.162 28.9929 58.1497 29.19C58.1475 29.3345 58.2012 29.4742 58.2997 29.58C58.4387 29.7613 58.6257 29.8999 58.8396 29.98H55.1396L60.4297 23.73L57.6497 19.99C57.2963 19.53 57.0263 19.1967 56.8396 18.99C56.557 18.6839 56.2173 18.4359 55.8396 18.26H58.0596C58.2702 18.2486 58.481 18.2792 58.6797 18.35C58.8211 18.4312 58.9385 18.5486 59.0197 18.69L61.8096 22.41L63.7097 20.02C63.8833 19.8007 64.0372 19.5664 64.1696 19.32C64.2498 19.1869 64.2946 19.0354 64.2997 18.88C64.3024 18.8093 64.2884 18.739 64.2589 18.6747C64.2294 18.6104 64.1851 18.554 64.1297 18.51C63.9615 18.371 63.7565 18.2841 63.5397 18.26H67.0697L62.6897 23.52L65.7796 27.74C66.2896 28.45 66.6096 28.88 66.7796 29.02C67.1225 29.4387 67.5617 29.7681 68.0596 29.98Z" fill="#010101"/>
<path fill-rule="evenodd" clip-rule="evenodd" d="M68.7896 29.9799C68.9711 29.9038 69.1325 29.7864 69.2609 29.6372C69.3893 29.4879 69.4813 29.3108 69.5295 29.1199C69.6327 28.732 69.6798 28.3312 69.6695 27.9299V20.2399C69.6808 19.8649 69.6336 19.4904 69.5295 19.1299C69.4832 18.9474 69.3948 18.7783 69.2716 18.6359C69.1483 18.4936 68.9935 18.3819 68.8195 18.3099H72.4695C72.3058 18.372 72.1595 18.4725 72.0429 18.603C71.9263 18.7336 71.8428 18.8903 71.7995 19.0599C71.6756 19.4784 71.6182 19.9137 71.6295 20.3499V27.9399C71.6134 28.3629 71.6503 28.7862 71.7395 29.1999C71.7849 29.3859 71.8751 29.5579 72.0024 29.7009C72.1297 29.8438 72.2901 29.9534 72.4695 30.0199L68.7896 29.9799Z" fill="#010101"/>
<path fill-rule="evenodd" clip-rule="evenodd" d="M82.6395 26.5C82.6213 27.0061 82.4786 27.5 82.2239 27.9378C81.9692 28.3756 81.6105 28.7439 81.1796 29.01C80.1084 29.7551 78.8234 30.1308 77.5195 30.08C76.9308 30.0815 76.3427 30.0414 75.7596 29.96C75.1959 29.8787 74.6404 29.7482 74.0995 29.57L73.5396 27.4C74.145 27.8584 74.8203 28.2163 75.5396 28.46C76.2598 28.7106 77.0169 28.8391 77.7795 28.84C78.4004 28.845 79.0125 28.6937 79.5595 28.4C79.8405 28.2953 80.0848 28.1108 80.2625 27.8692C80.4401 27.6276 80.5434 27.3394 80.5595 27.04C80.5595 26.31 79.9895 25.68 78.8595 25.13L75.7095 23.72C75.2057 23.4944 74.7739 23.1342 74.4616 22.679C74.1493 22.2238 73.9686 21.6912 73.9395 21.14C73.9348 20.6475 74.0755 20.1646 74.3441 19.7519C74.6128 19.3392 74.9973 19.015 75.4495 18.82C76.4699 18.325 77.5962 18.0881 78.7295 18.13C79.6928 18.1203 80.6525 18.2483 81.5795 18.51V20.46C81.1804 20.1128 80.7189 19.8446 80.2195 19.67C79.6944 19.4757 79.1395 19.3741 78.5795 19.37C78.0145 19.3497 77.4527 19.4627 76.9395 19.7C76.6933 19.8021 76.4835 19.976 76.3373 20.1989C76.1911 20.4217 76.1152 20.6834 76.1195 20.95C76.1195 21.59 76.6795 22.19 77.8195 22.73C78.9595 23.27 79.9095 23.73 80.9695 24.17C81.4339 24.3691 81.835 24.6914 82.1294 25.1021C82.4238 25.5128 82.6002 25.9962 82.6395 26.5Z" fill="#010101"/>
<path fill-rule="evenodd" clip-rule="evenodd" d="M29.6798 21.4C29.6797 21.8818 29.5599 22.3561 29.3313 22.7802C29.1027 23.2043 28.7723 23.5651 28.3698 23.83C27.5167 24.4401 26.4883 24.7561 25.4398 24.73C25.1884 24.7369 24.9369 24.7168 24.6898 24.67C24.4639 24.6441 24.2441 24.5798 24.0398 24.48C24.8751 24.4959 25.6929 24.2397 26.3698 23.75C26.7073 23.5369 26.9853 23.2416 27.1777 22.8918C27.3701 22.542 27.4706 22.1492 27.4698 21.75C27.492 21.4328 27.4351 21.1151 27.3042 20.8254C27.1733 20.5356 26.9725 20.283 26.7198 20.09C26.1278 19.7013 25.427 19.5121 24.7198 19.55C24.271 19.5522 23.823 19.589 23.3798 19.66V27.66C23.3583 28.0935 23.3987 28.5279 23.4998 28.95C23.5548 29.1624 23.6535 29.361 23.7895 29.5332C23.9255 29.7053 24.0959 29.8473 24.2898 29.95H20.5498C20.7305 29.8769 20.8911 29.7616 21.0182 29.6137C21.1452 29.4659 21.2349 29.2897 21.2798 29.1C21.3825 28.6915 21.4296 28.2711 21.4198 27.85V20.35C21.4345 19.9497 21.3942 19.5493 21.2998 19.16C21.2526 18.9677 21.1623 18.7886 21.0359 18.6361C20.9094 18.4837 20.7501 18.3619 20.5698 18.28H25.2398C26.3597 18.2298 27.4695 18.5116 28.4298 19.09C28.8209 19.3332 29.1419 19.6741 29.3611 20.0792C29.5803 20.4843 29.6902 20.9395 29.6798 21.4Z" fill="#010101"/>
<path fill-rule="evenodd" clip-rule="evenodd" d="M31.4897 14.97C31.6872 14.8542 31.839 14.6742 31.9197 14.46C31.9978 14.235 32.035 13.998 32.0297 13.76V6.58997C32.0385 6.36711 32.0114 6.14429 31.9497 5.92997C31.8573 5.71363 31.6954 5.53421 31.4897 5.41997H32.3697C32.5695 5.43499 32.77 5.43499 32.9697 5.41997C33.1013 5.39077 33.2203 5.32077 33.3097 5.21997V13.42V13.91C33.3015 14.1278 33.3355 14.3451 33.4097 14.55C33.5007 14.7559 33.6548 14.9275 33.8497 15.04L31.4897 14.97Z" fill="#847040"/>
<path fill-rule="evenodd" clip-rule="evenodd" d="M42.6396 6.09002L40.5397 7.36002H39.7197L41.6696 5.14001L42.6396 6.09002ZM38.6396 14.97C38.8157 14.8626 38.9605 14.7109 39.0596 14.53C39.1675 14.2569 39.212 13.9628 39.1897 13.67V9.51002C39.2012 9.2844 39.1776 9.05837 39.1196 8.84002C39.0284 8.61397 38.8577 8.42905 38.6396 8.32001H39.5296C39.7142 8.32205 39.8985 8.3053 40.0797 8.27002C40.2273 8.25244 40.3648 8.18548 40.4697 8.08002L40.5197 13.39V13.76C40.5074 14.0107 40.5413 14.2616 40.6196 14.5C40.7054 14.7174 40.8647 14.8978 41.0697 15.01L38.6396 14.97Z" fill="#847040"/>
<path fill-rule="evenodd" clip-rule="evenodd" d="M50.8798 14.97C51.1023 14.843 51.2724 14.6409 51.3598 14.4C51.4229 14.1689 51.4499 13.9294 51.4398 13.69V11.4C51.4861 10.7801 51.3469 10.1604 51.0398 9.62C50.8795 9.4181 50.6707 9.25999 50.433 9.16034C50.1952 9.06069 49.9361 9.02273 49.6798 9.05C49.4386 9.02377 49.1947 9.06067 48.972 9.15709C48.7494 9.25351 48.5556 9.40613 48.4098 9.6C48.2073 9.96247 48.1135 10.3756 48.1398 10.79V13.73C48.1276 13.9774 48.1615 14.225 48.2398 14.46C48.3256 14.6774 48.4848 14.8578 48.6898 14.97H46.2598C46.4336 14.8598 46.5778 14.7088 46.6798 14.53C46.7876 14.2569 46.8321 13.9628 46.8098 13.67V9.53C46.8216 9.29778 46.798 9.06511 46.7398 8.84C46.6485 8.61395 46.4778 8.42903 46.2598 8.32H47.1198C47.3015 8.32094 47.4827 8.30081 47.6598 8.26C47.8103 8.23922 47.9559 8.19181 48.0898 8.12V9.24C48.3208 8.90395 48.6208 8.621 48.9698 8.41C49.3254 8.20678 49.7304 8.10638 50.1398 8.12C50.5778 8.11752 51.0123 8.19899 51.4198 8.36C51.7968 8.51789 52.1199 8.78192 52.3498 9.12C52.5503 9.4163 52.6646 9.76252 52.6798 10.12C52.6798 10.52 52.6798 10.9 52.6798 11.27V13.74C52.6733 13.9871 52.7071 14.2337 52.7798 14.47C52.8706 14.6906 53.0373 14.8715 53.2498 14.98L50.8798 14.97Z" fill="#847040"/>
<path fill-rule="evenodd" clip-rule="evenodd" d="M57.73 14.97C57.9038 14.8598 58.048 14.7088 58.15 14.53C58.2579 14.2569 58.3023 13.9628 58.28 13.67V9.50999C58.2915 9.28438 58.2679 9.05835 58.21 8.83999C58.1187 8.61395 57.948 8.42903 57.73 8.31999H58.62C58.8045 8.32203 58.9888 8.30528 59.17 8.26999C59.3177 8.25241 59.4551 8.18546 59.56 8.07999V13.39V13.76C59.5477 14.0107 59.5816 14.2615 59.66 14.5C59.7458 14.7173 59.905 14.8978 60.11 15.01L57.73 14.97ZM59.73 6.46999C59.7335 6.7078 59.6437 6.93753 59.48 7.10999C59.403 7.20124 59.3063 7.27385 59.1971 7.32234C59.088 7.37084 58.9693 7.39397 58.85 7.38999C58.7251 7.39181 58.6011 7.36789 58.4859 7.31972C58.3706 7.27155 58.2665 7.20016 58.18 7.10999C58.0914 7.02079 58.0217 6.91454 57.9753 6.79766C57.9289 6.68078 57.9067 6.55571 57.91 6.42999C57.9094 6.31017 57.935 6.19167 57.9851 6.08282C58.0352 5.97398 58.1085 5.87744 58.2 5.79999C58.3825 5.64869 58.6129 5.56718 58.85 5.56999C58.9673 5.5669 59.084 5.58844 59.1925 5.63323C59.301 5.67801 59.399 5.74504 59.48 5.82999C59.5692 5.91141 59.641 6.01014 59.6908 6.12016C59.7407 6.23019 59.7676 6.34922 59.77 6.46999H59.73Z" fill="#847040"/>
<path fill-rule="evenodd" clip-rule="evenodd" d="M70.6996 14.6799C70.4086 14.786 70.1068 14.8598 69.7996 14.8999C69.4685 14.9485 69.1342 14.9719 68.7996 14.9699C67.7626 14.9943 66.7525 14.6387 65.9596 13.9699C65.5962 13.6853 65.3034 13.3207 65.1039 12.9044C64.9045 12.4882 64.8037 12.0315 64.8096 11.5699C64.7857 11.0381 64.8862 10.5081 65.1032 10.022C65.3202 9.5359 65.6477 9.10717 66.0596 8.76994C66.8903 8.13718 67.9163 7.81522 68.9596 7.85994C69.4875 7.86105 70.0137 7.91803 70.5296 8.02994V9.52994C70.2957 9.29624 70.0167 9.11252 69.7096 8.98994C69.3884 8.87692 69.0502 8.81943 68.7096 8.81994C68.3878 8.80796 68.0669 8.86114 67.7662 8.97628C67.4655 9.09141 67.1911 9.26613 66.9596 9.48994C66.7349 9.71092 66.5585 9.97608 66.4415 10.2687C66.3244 10.5613 66.2693 10.875 66.2796 11.1899C66.2702 11.5685 66.3451 11.9444 66.4991 12.2903C66.653 12.6362 66.8821 12.9436 67.1696 13.1899C67.7607 13.7067 68.5248 13.9817 69.3096 13.9599C69.6911 13.961 70.0699 13.8968 70.4296 13.7699C70.7892 13.6479 71.1268 13.4689 71.4296 13.2399L70.6996 14.6799Z" fill="#847040"/>
<path fill-rule="evenodd" clip-rule="evenodd" d="M82.5298 14.01L81.8898 15.01C81.4283 15.031 80.9704 14.92 80.5698 14.69C80.3717 14.5643 80.2113 14.3873 80.1057 14.1777C80.0001 13.9682 79.9531 13.734 79.9698 13.5V11.2C79.7545 11.3062 79.5303 11.3932 79.2998 11.46C79.1498 11.51 78.9098 11.57 78.5798 11.65C78.2333 11.7101 77.8968 11.8178 77.5798 11.97C77.4279 12.0623 77.3034 12.1934 77.219 12.3499C77.1346 12.5063 77.0935 12.6824 77.0998 12.86C77.0881 13.0462 77.1287 13.232 77.217 13.3964C77.3054 13.5607 77.438 13.6971 77.5998 13.79C77.9323 13.9752 78.3095 14.0652 78.6898 14.05C78.8195 14.0615 78.95 14.0615 79.0798 14.05L79.7398 13.88L78.8798 14.97C78.6291 15.0163 78.3747 15.0397 78.1198 15.04C77.4678 15.0676 76.8292 14.85 76.3298 14.43C76.1057 14.2439 75.9265 14.0097 75.8053 13.7448C75.6841 13.48 75.6241 13.1912 75.6298 12.9C75.6129 12.541 75.7116 12.186 75.9114 11.8872C76.1112 11.5884 76.4015 11.3616 76.7398 11.24C76.8598 11.19 77.5598 11.02 78.8398 10.72C79.5998 10.54 79.9698 10.25 79.9698 9.83001C79.9671 9.67407 79.9194 9.52224 79.8325 9.39274C79.7455 9.26325 79.6231 9.1616 79.4798 9.10001C79.1994 8.96416 78.8913 8.89568 78.5798 8.90001C78.2398 8.90636 77.9027 8.96366 77.5798 9.07001C77.3698 9.14001 77.0498 9.28001 76.5798 9.48001L77.5798 8.03001L78.5798 7.94001C79.2738 7.88921 79.9679 8.03844 80.5798 8.37001C80.8541 8.57368 81.0716 8.84422 81.2116 9.15581C81.3517 9.46741 81.4096 9.80969 81.3798 10.15V12.33C81.3529 12.6628 81.3529 12.9972 81.3798 13.33C81.4598 13.69 81.8498 13.93 82.5298 14.01Z" fill="#847040"/>
<path fill-rule="evenodd" clip-rule="evenodd" d="M26.4799 14.6799C26.1888 14.786 25.887 14.8598 25.5799 14.8999C25.2488 14.9485 24.9145 14.9719 24.5799 14.9699C23.5429 14.9943 22.5328 14.6387 21.7399 13.9699C21.3765 13.6853 21.0837 13.3207 20.8842 12.9044C20.6847 12.4882 20.584 12.0315 20.5899 11.5699C20.5659 11.0381 20.6665 10.5081 20.8835 10.022C21.1005 9.5359 21.428 9.10717 21.8399 8.76994C22.6706 8.13718 23.6966 7.81522 24.7399 7.85994C25.2678 7.86105 25.794 7.91803 26.3099 8.02994V9.52994C26.076 9.29624 25.797 9.11252 25.4899 8.98994C25.1686 8.87692 24.8305 8.81943 24.4899 8.81994C24.1681 8.80796 23.8472 8.86114 23.5465 8.97628C23.2458 9.09141 22.9714 9.26613 22.7399 9.48994C22.5152 9.71092 22.3388 9.97608 22.2218 10.2687C22.1047 10.5613 22.0496 10.875 22.0599 11.1899C22.0504 11.5685 22.1254 11.9444 22.2794 12.2903C22.4333 12.6362 22.6624 12.9436 22.9499 13.1899C23.5409 13.7067 24.3051 13.9817 25.0899 13.9599C25.4713 13.961 25.8502 13.8968 26.2099 13.7699C26.5694 13.6479 26.907 13.4689 27.2099 13.2399L26.4799 14.6799Z" fill="#847040"/>
</g>
<defs>
<clipPath id="clip0_90_4087">
<rect width="82.64" height="53.04" fill="white"/>
</clipPath>
</defs>
</svg>
