<svg width="154" height="213" viewBox="0 0 154 213" fill="none" xmlns="http://www.w3.org/2000/svg">
<path fill-rule="evenodd" clip-rule="evenodd" d="M47.865 212.394H44.4337C43.6346 212.447 42.8379 212.259 42.1469 211.854C41.4559 211.449 40.9024 210.846 40.5581 210.122L32.56 197.353C34.4943 197.145 36.3667 196.549 38.0649 195.599C38.8824 195.163 39.5652 194.511 40.0394 193.714C40.5136 192.918 40.7613 192.007 40.7556 191.08C40.7765 190.385 40.6278 189.696 40.3224 189.072C40.017 188.448 39.5641 187.908 39.0029 187.498C37.7204 186.613 36.1914 186.155 34.6336 186.189C34.0335 186.153 33.4317 186.153 32.8316 186.189L31.4245 186.412V207.158C31.391 208.145 31.4822 209.133 31.696 210.097C32.0169 211.11 31.8688 211.974 32.7822 212.271H24.5867C25.008 212.082 25.3779 211.796 25.6657 211.435C25.9535 211.074 26.1506 210.649 26.2406 210.196C26.4939 209.246 26.6103 208.265 26.5862 207.282V188.338C26.6141 187.412 26.4975 186.487 26.2406 185.597C26.1322 185.147 25.9192 184.729 25.619 184.377C25.3187 184.025 24.9396 183.749 24.5126 183.571H35.7938C38.3555 183.424 40.8952 184.118 43.0266 185.547C43.8215 186.135 44.4616 186.908 44.8916 187.799C45.3217 188.689 45.5288 189.671 45.4952 190.66C45.5017 191.59 45.3116 192.511 44.9372 193.362C44.5628 194.213 44.0126 194.976 43.3229 195.599C41.8315 196.963 39.9814 197.872 37.9908 198.217C37.9908 198.217 46.3592 211.555 47.865 212.394Z" fill="#010101"/>
<path fill-rule="evenodd" clip-rule="evenodd" d="M70.8224 198.217L66.1569 187.153L61.4666 198.217H70.8224ZM74.4018 212.345C75.5373 211.802 75.8335 211.184 75.8335 210.616C75.788 210.092 75.6458 209.581 75.4139 209.109C75.1823 208.627 74.9763 208.132 74.7967 207.628L72.1801 201.453H60.2077L57.7391 207.628C57.4923 208.245 57.2948 208.739 57.1714 209.109C57.0571 209.494 56.9989 209.894 56.9986 210.295C56.9905 210.491 57.0237 210.688 57.0959 210.87C57.1682 211.053 57.278 211.219 57.4182 211.357C57.7432 211.802 58.1886 212.145 58.7019 212.345H49.9633C51.1892 211.692 52.2071 210.708 52.9008 209.505C53.534 208.347 54.0946 207.151 54.5794 205.923L62.4787 187.622L63.0465 186.189C63.1648 185.864 63.2315 185.523 63.244 185.177C63.2514 184.82 63.1572 184.469 62.9724 184.164C62.6504 183.804 62.2298 183.546 61.7629 183.423H69.1685L79.0426 205.849C79.5563 207.088 80.133 208.3 80.7706 209.48C81.4679 210.687 82.4843 211.678 83.7082 212.345H74.4018Z" fill="#010101"/>
<path fill-rule="evenodd" clip-rule="evenodd" d="M117.28 212.394H111.825C111.046 212.4 110.285 212.158 109.652 211.703C109.277 211.461 108.951 211.151 108.69 210.789L100.79 199.798L94.1747 207.85C93.8452 208.236 93.548 208.649 93.286 209.085C93.0095 209.487 92.8475 209.956 92.817 210.443C92.8116 210.8 92.9443 211.145 93.1873 211.406C93.5304 211.854 93.9923 212.196 94.5203 212.394H85.3867L98.4453 196.958L91.5828 187.721C90.7106 186.585 90.044 185.761 89.5832 185.251C88.8855 184.495 88.047 183.882 87.1147 183.448H92.5948C93.1147 183.42 93.635 183.495 94.1254 183.67C94.4746 183.871 94.7642 184.16 94.9647 184.51L101.852 193.698L106.542 187.795C106.971 187.253 107.351 186.674 107.678 186.066C107.876 185.737 107.986 185.363 107.999 184.979C108.005 184.805 107.971 184.631 107.898 184.472C107.825 184.313 107.716 184.174 107.579 184.065C107.164 183.722 106.658 183.507 106.122 183.448H114.836L104.024 196.439L111.652 206.862C112.911 208.615 113.701 209.677 114.121 210.023C114.967 211.057 116.051 211.871 117.28 212.394Z" fill="#010101"/>
<path fill-rule="evenodd" clip-rule="evenodd" d="M119.082 212.394C119.53 212.206 119.929 211.916 120.246 211.548C120.563 211.179 120.79 210.742 120.909 210.27C121.164 209.312 121.28 208.322 121.255 207.331V188.338C121.282 187.412 121.166 186.487 120.909 185.597C120.794 185.146 120.576 184.728 120.272 184.376C119.968 184.025 119.586 183.749 119.156 183.571H128.166C127.762 183.725 127.401 183.973 127.113 184.295C126.825 184.618 126.619 185.005 126.513 185.424C126.207 186.457 126.065 187.532 126.093 188.61V207.356C126.053 208.4 126.144 209.446 126.364 210.468C126.476 210.927 126.699 211.352 127.013 211.705C127.327 212.058 127.723 212.329 128.166 212.493L119.082 212.394Z" fill="#010101"/>
<path fill-rule="evenodd" clip-rule="evenodd" d="M153.272 203.799C153.227 205.049 152.874 206.269 152.245 207.351C151.617 208.432 150.731 209.341 149.667 209.999C147.023 211.839 143.851 212.767 140.633 212.641C139.179 212.645 137.727 212.546 136.288 212.345C134.897 212.144 133.525 211.822 132.19 211.382L130.808 206.022C132.302 207.154 133.969 208.038 135.745 208.64C137.523 209.259 139.392 209.576 141.274 209.579C142.807 209.591 144.318 209.217 145.668 208.492C146.362 208.233 146.965 207.778 147.404 207.181C147.842 206.584 148.097 205.873 148.137 205.133C148.137 203.33 146.73 201.774 143.94 200.416L136.165 196.933C134.921 196.376 133.855 195.486 133.084 194.362C132.313 193.238 131.867 191.923 131.795 190.561C131.783 189.345 132.131 188.152 132.794 187.133C133.457 186.113 134.406 185.313 135.523 184.831C138.042 183.609 140.822 183.023 143.62 183.127C145.997 183.103 148.366 183.419 150.655 184.065V188.881C149.67 188.024 148.53 187.362 147.298 186.93C146.001 186.45 144.631 186.2 143.249 186.189C141.855 186.139 140.468 186.418 139.201 187.004C138.593 187.257 138.075 187.686 137.714 188.237C137.353 188.787 137.166 189.433 137.177 190.092C137.177 191.672 138.559 193.154 141.373 194.488C144.187 195.822 146.532 196.958 149.149 198.045C150.295 198.536 151.286 199.333 152.012 200.347C152.739 201.361 153.174 202.555 153.272 203.799Z" fill="#010101"/>
<path fill-rule="evenodd" clip-rule="evenodd" d="M22.5378 191.203C22.5375 192.393 22.2419 193.565 21.6775 194.612C21.113 195.66 20.2975 196.551 19.3039 197.205C17.1982 198.712 14.6594 199.492 12.0712 199.428C11.4505 199.445 10.8298 199.395 10.2197 199.28C9.66212 199.215 9.11951 199.057 8.61521 198.81C10.6772 198.85 12.6959 198.217 14.3669 197.007C15.2001 196.481 15.8863 195.752 16.3611 194.888C16.836 194.024 17.0842 193.054 17.0823 192.068C17.1371 191.284 16.9966 190.5 16.6735 189.784C16.3503 189.068 15.8546 188.444 15.2309 187.968C13.7695 187.008 12.0395 186.54 10.2938 186.634C9.18585 186.64 8.07999 186.73 6.98597 186.906V206.664C6.93298 207.735 7.03272 208.808 7.28218 209.85C7.41802 210.375 7.66157 210.866 7.99732 211.291C8.33308 211.716 8.7537 212.067 9.23235 212.32H0C0.44616 212.14 0.842617 211.855 1.15615 211.49C1.46968 211.125 1.69114 210.689 1.80202 210.221C2.05555 209.212 2.17179 208.174 2.14762 207.134V188.61C2.18397 187.621 2.08431 186.632 1.8514 185.671C1.73477 185.196 1.512 184.753 1.19988 184.377C0.887757 184 0.494414 183.7 0.0493813 183.497H11.5775C14.342 183.373 17.0815 184.069 19.4521 185.498C20.4176 186.099 21.21 186.941 21.7511 187.941C22.2922 188.942 22.5633 190.066 22.5378 191.203Z" fill="#010101"/>
<path fill-rule="evenodd" clip-rule="evenodd" d="M27.0059 175.322C27.4934 175.036 27.868 174.592 28.0673 174.062C28.26 173.507 28.3519 172.921 28.3389 172.334V154.625C28.3604 154.074 28.2937 153.524 28.1414 152.995C27.9131 152.46 27.5136 152.017 27.0059 151.735H29.1781C29.6712 151.772 30.1663 151.772 30.6593 151.735C30.9841 151.663 31.2778 151.49 31.4986 151.241V171.494V172.704C31.4782 173.242 31.5621 173.779 31.7454 174.285C31.9699 174.793 32.3503 175.217 32.8316 175.495L27.0059 175.322Z" fill="#847040"/>
<path fill-rule="evenodd" clip-rule="evenodd" d="M54.53 153.39L49.3461 156.527H47.3219L52.1355 151.044L54.53 153.39ZM44.6559 175.322C45.0905 175.057 45.4479 174.682 45.6927 174.235C45.9589 173.561 46.0687 172.835 46.0136 172.111V161.837C46.042 161.28 45.9837 160.721 45.8408 160.182C45.6155 159.624 45.1941 159.167 44.6559 158.898H46.8529C47.3085 158.903 47.7634 158.861 48.2106 158.774C48.5752 158.731 48.9144 158.565 49.1733 158.305L49.2967 171.42V172.334C49.2665 172.953 49.3502 173.572 49.5436 174.161C49.7554 174.698 50.1484 175.144 50.6544 175.421L44.6559 175.322Z" fill="#847040"/>
<path fill-rule="evenodd" clip-rule="evenodd" d="M74.8707 175.322C75.4201 175.008 75.8401 174.509 76.0556 173.914C76.2115 173.343 76.2781 172.752 76.2531 172.161V166.505C76.3676 164.974 76.0238 163.443 75.2657 162.108C74.8699 161.61 74.3547 161.219 73.7677 160.973C73.1808 160.727 72.5413 160.633 71.9085 160.701C71.3131 160.636 70.711 160.727 70.1614 160.965C69.6118 161.203 69.1335 161.58 68.7734 162.059C68.2735 162.954 68.0421 163.975 68.1069 164.998V172.259C68.0769 172.871 68.1606 173.482 68.3538 174.062C68.5656 174.599 68.9586 175.045 69.4646 175.322H63.4661C63.8952 175.05 64.2511 174.677 64.5028 174.235C64.7691 173.561 64.8788 172.834 64.8237 172.111V161.886C64.8529 161.313 64.7947 160.738 64.651 160.182C64.4256 159.624 64.0043 159.167 63.4661 158.898H65.589C66.0375 158.9 66.4849 158.85 66.922 158.749C67.2935 158.698 67.6529 158.581 67.9835 158.404V161.17C68.5538 160.34 69.2943 159.641 70.1558 159.12C71.0336 158.618 72.0335 158.37 73.044 158.404C74.1254 158.398 75.198 158.599 76.2037 158.996C77.1345 159.386 77.9321 160.039 78.4995 160.874C78.9946 161.605 79.2766 162.46 79.3141 163.343C79.3141 164.331 79.3141 165.27 79.3141 166.184V172.284C79.2981 172.895 79.3815 173.504 79.5609 174.087C79.7851 174.632 80.1966 175.079 80.7211 175.347L74.8707 175.322Z" fill="#847040"/>
<path fill-rule="evenodd" clip-rule="evenodd" d="M91.7803 175.322C92.2094 175.05 92.5654 174.677 92.8171 174.235C93.0834 173.561 93.1931 172.834 93.138 172.111V161.837C93.1664 161.28 93.1081 160.721 92.9652 160.182C92.7399 159.624 92.3185 159.167 91.7803 158.898H93.9773C94.4328 158.903 94.8878 158.861 95.335 158.774C95.6996 158.731 96.0388 158.565 96.2977 158.305V171.42V172.334C96.2675 172.953 96.3511 173.572 96.5446 174.161C96.7564 174.698 97.1494 175.144 97.6554 175.421L91.7803 175.322ZM96.7173 154.328C96.726 154.916 96.5045 155.483 96.1002 155.909C95.9101 156.135 95.6714 156.314 95.402 156.434C95.1327 156.553 94.8397 156.611 94.5451 156.601C94.2367 156.605 93.9307 156.546 93.6462 156.427C93.3616 156.308 93.1046 156.132 92.8911 155.909C92.6723 155.689 92.5004 155.426 92.3859 155.138C92.2713 154.849 92.2165 154.54 92.2246 154.23C92.2231 153.934 92.2864 153.641 92.4101 153.372C92.5337 153.103 92.7148 152.865 92.9405 152.674C93.3911 152.3 93.9598 152.099 94.5451 152.106C94.8347 152.098 95.1228 152.151 95.3906 152.262C95.6585 152.372 95.9002 152.538 96.1002 152.748C96.3205 152.949 96.4976 153.193 96.6206 153.464C96.7437 153.736 96.8102 154.03 96.8161 154.328H96.7173Z" fill="#847040"/>
<path fill-rule="evenodd" clip-rule="evenodd" d="M123.797 174.606C123.079 174.868 122.334 175.05 121.575 175.149C120.758 175.269 119.933 175.327 119.107 175.322C116.547 175.382 114.054 174.504 112.096 172.852C111.199 172.149 110.476 171.249 109.984 170.221C109.492 169.193 109.243 168.065 109.257 166.925C109.198 165.611 109.447 164.302 109.982 163.102C110.518 161.901 111.326 160.842 112.343 160.009C114.394 158.446 116.927 157.651 119.502 157.762C120.805 157.764 122.104 157.905 123.377 158.181V161.886C122.8 161.309 122.111 160.855 121.353 160.553C120.56 160.273 119.725 160.131 118.885 160.133C118.09 160.103 117.298 160.234 116.556 160.519C115.814 160.803 115.136 161.235 114.565 161.787C114.01 162.333 113.575 162.988 113.286 163.711C112.997 164.433 112.861 165.208 112.886 165.986C112.863 166.921 113.048 167.849 113.428 168.704C113.808 169.558 114.373 170.317 115.083 170.926C116.542 172.202 118.429 172.881 120.366 172.828C121.307 172.83 122.243 172.672 123.131 172.358C124.018 172.057 124.852 171.615 125.599 171.049L123.797 174.606Z" fill="#847040"/>
<path fill-rule="evenodd" clip-rule="evenodd" d="M153 172.951L151.42 175.421C150.281 175.473 149.151 175.199 148.162 174.631C147.673 174.32 147.277 173.883 147.016 173.365C146.755 172.848 146.639 172.269 146.681 171.691V166.011C146.149 166.273 145.596 166.488 145.027 166.653C144.656 166.776 144.064 166.925 143.249 167.122C142.394 167.271 141.563 167.537 140.781 167.913C140.406 168.141 140.098 168.464 139.89 168.851C139.682 169.237 139.58 169.672 139.596 170.111C139.567 170.571 139.667 171.03 139.885 171.436C140.103 171.841 140.431 172.178 140.83 172.408C141.651 172.865 142.582 173.087 143.521 173.05C143.841 173.078 144.163 173.078 144.484 173.05L146.113 172.63L143.99 175.322C143.371 175.436 142.743 175.494 142.114 175.495C140.504 175.563 138.928 175.026 137.695 173.988C137.142 173.529 136.699 172.95 136.4 172.296C136.101 171.642 135.953 170.929 135.967 170.21C135.925 169.323 136.169 168.446 136.662 167.708C137.155 166.97 137.872 166.41 138.707 166.11C139.003 165.986 140.731 165.566 143.891 164.825C145.767 164.381 146.681 163.664 146.681 162.627C146.674 162.242 146.556 161.867 146.342 161.547C146.127 161.227 145.825 160.976 145.471 160.824C144.779 160.489 144.018 160.32 143.249 160.33C142.41 160.346 141.578 160.487 140.781 160.75C140.262 160.923 139.472 161.269 138.312 161.763L140.781 158.181L143.249 157.959C144.963 157.834 146.676 158.202 148.186 159.021C148.863 159.524 149.4 160.192 149.746 160.962C150.092 161.732 150.235 162.577 150.161 163.418V168.802C150.095 169.624 150.095 170.45 150.161 171.272C150.359 172.161 151.321 172.753 153 172.951Z" fill="#847040"/>
<path fill-rule="evenodd" clip-rule="evenodd" d="M14.6384 174.606C13.92 174.868 13.175 175.05 12.4168 175.149C11.5995 175.269 10.7743 175.327 9.94823 175.322C7.38841 175.382 4.89494 174.504 2.93759 172.852C2.04052 172.149 1.31765 171.249 0.825269 170.221C0.33289 169.193 0.0842643 168.065 0.0987493 166.925C0.0396625 165.611 0.287843 164.302 0.823536 163.102C1.35923 161.901 2.16764 160.842 3.18442 160.009C5.23503 158.446 7.76782 157.651 10.3432 157.762C11.6463 157.764 12.9454 157.905 14.2188 158.181V161.886C13.6414 161.309 12.9527 160.855 12.1946 160.553C11.4016 160.273 10.5668 160.131 9.72607 160.133C8.93173 160.103 8.13959 160.234 7.39724 160.519C6.65489 160.803 5.97764 161.235 5.40613 161.787C4.85151 162.333 4.41599 162.988 4.12707 163.711C3.83816 164.433 3.70209 165.208 3.7275 165.986C3.70418 166.921 3.88925 167.849 4.26927 168.704C4.64929 169.558 5.21472 170.317 5.9245 170.926C7.38352 172.202 9.26985 172.881 11.2072 172.828C12.1488 172.83 13.0839 172.672 13.972 172.358C14.8595 172.057 15.6929 171.615 16.4405 171.049L14.6384 174.606Z" fill="#847040"/>
<path fill-rule="evenodd" clip-rule="evenodd" d="M75.8134 119.164L76.628 119.584L76.233 131.044L75.8134 119.164ZM75.8134 111.754L76.8749 112.322L76.7268 116.225L75.9121 115.508L75.8134 111.754ZM75.5666 99.899L76.1837 99.2322L77.097 100.023V104.419L76.5293 104.814L75.7887 104.147L75.5666 99.899ZM75.2456 86.8583L76.0849 86.3644L77.418 87.0312L77.2698 91.9709L76.4305 92.6871L75.3937 91.7486L75.2456 86.8583ZM74.826 68.4581L75.6159 68.0382L77.8623 68.631L77.6154 76.7814L76.4305 77.2754L75.0728 76.6826L74.826 68.4581ZM75.5912 45.0687L78.3066 45.6615L78.0598 58.4552L76.9736 58.8751L74.5051 57.9366L74.2335 45.5874L75.5912 45.0687ZM74.2829 1.79723C74.2829 -0.52441 78.2326 -0.6726 78.2326 1.79723V36.7701L76.8255 37.2641L74.357 36.7701L74.2829 1.79723Z" fill="#010101"/>
<path fill-rule="evenodd" clip-rule="evenodd" d="M66.4082 64.5805L74.0113 66.9021C72.6595 67.0733 71.4104 67.7132 70.4813 68.7104C69.5523 69.7077 69.002 70.9992 68.9262 72.3604C68.9262 80.2639 85.4654 77.9175 85.4654 88.6366C85.4654 91.8474 82.2809 93.9962 79.763 95.7744L76.6527 93.3046C78.0597 91.9215 80.2074 90.6866 80.2074 88.365C80.2074 83.4253 62.2858 82.709 62.2858 72.4592C62.2683 70.9073 62.6357 69.3753 63.3551 68.0003C64.0745 66.6253 65.1236 65.4503 66.4082 64.5805ZM85.8109 16.0482C84.1077 13.3561 80.9973 12.8374 77.2204 12.9609C64.8777 13.3314 57.4721 22.0746 56.386 27.3354C54.6333 35.1894 58.8545 40.6478 68.9508 42.5248C79.0471 44.4019 88.2795 47.0446 88.2795 50.6259C88.2795 54.2071 82.9228 58.0354 77.6154 59.7643C80.3769 60.6326 83.0152 61.8529 85.4654 63.3949C87.9777 62.1679 90.155 60.3492 91.8103 58.095C93.4657 55.8409 94.5497 53.2185 94.9692 50.453C94.9692 44.0808 86.1812 40.4008 74.6038 37.8321C63.0264 35.2635 61.7674 32.8925 62.582 27.36C63.1498 23.4577 68.7287 17.4807 71.1231 18.1723C76.2824 19.7036 82.7253 19.506 85.8109 16.0482ZM73.1227 109.284C72.146 110.328 71.607 111.708 71.6168 113.137C71.6168 115.78 76.3317 117.781 78.0844 119.757C76.6773 117.929 73.4929 115.089 73.4929 112.347C73.4929 111.507 74.2582 110.964 75.0234 110.445L73.1227 109.284ZM72.0859 96.9353L75.1962 98.9111C74.6326 99.3692 74.1656 99.9348 73.8224 100.575C73.4791 101.215 73.2664 101.917 73.1967 102.641C73.1967 105.481 80.6023 108.914 80.0346 113.063C76.8008 108.741 70.9503 109.037 69.4199 102.097C69.4017 101.072 69.6463 100.06 70.1302 99.1559C70.6142 98.2523 71.3215 97.4878 72.1846 96.9353H72.0859ZM68.9755 82.6596L74.8506 85.1295C73.172 85.7963 71.7156 86.7102 71.6909 88.3156C71.6909 92.5637 82.3797 96.4907 82.3797 101.974C82.1593 103.217 81.6863 104.403 80.99 105.456C80.2936 106.51 79.3888 107.409 78.3313 108.099L76.3071 106.271C76.954 105.91 77.4978 105.389 77.8866 104.757C78.2755 104.126 78.4965 103.406 78.5288 102.665C78.5288 97.528 66.4329 94.9594 66.4329 88.2415C66.614 86.1451 67.5532 84.1868 69.0743 82.7337L68.9755 82.6596ZM63.6682 42.3272L73.5423 44.5007C69.0002 45.1923 63.6682 47.1681 63.6682 50.7C63.6682 60.3076 89.6125 59.5173 89.6125 72.1875C89.6125 76.5097 87.144 78.8561 82.7253 81.5235C80.8909 80.2069 78.8687 79.1744 76.7267 78.4609C80.5777 77.0037 82.824 75.9911 82.824 72.0887C82.824 66.8774 75.2703 66.5069 68.0128 63.9383C60.7553 61.3697 56.8303 54.5035 56.8303 50.8729C56.9796 48.9198 57.7251 47.0598 58.9658 45.5446C60.2064 44.0294 61.8824 42.9321 63.7669 42.4013L63.6682 42.3272Z" fill="#847040"/>
<path fill-rule="evenodd" clip-rule="evenodd" d="M79.368 37.8321C90.9454 35.3623 92.1797 32.8925 91.3898 27.3601C90.7973 23.4577 85.2184 17.4807 82.8239 18.1723C77.64 19.7036 71.1971 19.506 68.0127 16.0482C69.716 13.3561 72.9498 12.8374 76.6032 12.9609C88.9459 13.3314 96.3515 22.0746 97.4624 27.3354C98.9435 34.0286 96.0306 38.993 88.9212 41.4875C89.02 41.4875 79.368 37.9309 79.368 37.8321Z" fill="#847040"/>
</svg>
