<svg width="126" height="125" viewBox="0 0 126 125" fill="none" xmlns="http://www.w3.org/2000/svg">
<path d="M63 10.4167C34.25 10.4167 10.9166 33.75 10.9166 62.5C10.9166 91.25 34.25 114.583 63 114.583C91.75 114.583 115.083 91.25 115.083 62.5C115.083 33.75 91.75 10.4167 63 10.4167ZM37.3229 95.2084C39.5625 90.5209 53.2083 85.9375 63 85.9375C72.7916 85.9375 86.4895 90.5209 88.677 95.2084C81.5937 100.833 72.6875 104.167 63 104.167C53.3125 104.167 44.4062 100.833 37.3229 95.2084ZM96.125 87.6563C88.677 78.5938 70.6041 75.5208 63 75.5208C55.3958 75.5208 37.3229 78.5938 29.875 87.6563C24.5625 80.6771 21.3333 71.9792 21.3333 62.5C21.3333 39.5313 40.0312 20.8334 63 20.8334C85.9687 20.8334 104.667 39.5313 104.667 62.5C104.667 71.9792 101.437 80.6771 96.125 87.6563ZM63 31.25C52.8958 31.25 44.7708 39.375 44.7708 49.4792C44.7708 59.5834 52.8958 67.7084 63 67.7084C73.1041 67.7084 81.2291 59.5834 81.2291 49.4792C81.2291 39.375 73.1041 31.25 63 31.25ZM63 57.2917C58.677 57.2917 55.1875 53.8021 55.1875 49.4792C55.1875 45.1563 58.677 41.6667 63 41.6667C67.3229 41.6667 70.8125 45.1563 70.8125 49.4792C70.8125 53.8021 67.3229 57.2917 63 57.2917Z" fill="#C7C3BA"/>
</svg>
